<svg width="12" height="15" fill="none" xmlns="http://www.w3.org/2000/svg"><path fill-rule="evenodd" clip-rule="evenodd" d="M2.995 2.995A4.25 4.25 0 0110.25 6c0 1.98-1.109 3.807-2.316 5.195A15.518 15.518 0 016 13.056a15.518 15.518 0 01-1.934-1.86C2.859 9.806 1.75 7.98 1.75 6a4.25 4.25 0 011.245-3.005zm2.574 11.62L6 14l-.43.614a.75.75 0 00.86 0L6 14l.43.614h.001l.001-.001.005-.003.013-.01a6.186 6.186 0 00.22-.163 17.012 17.012 0 002.396-2.257C10.359 10.693 11.75 8.52 11.75 6A5.75 5.75 0 00.25 6c0 2.52 1.391 4.693 2.684 6.18a17.012 17.012 0 002.396 2.257 9.626 9.626 0 00.22.163l.013.01.005.003h.001v.001zM4.75 6a1.25 1.25 0 112.5 0 1.25 1.25 0 01-2.5 0zM6 3.25a2.75 2.75 0 100 5.5 2.75 2.75 0 000-5.5z" fill="#17191B"/></svg>