<svg width="21" height="26" fill="none" xmlns="http://www.w3.org/2000/svg"><path fill-rule="evenodd" clip-rule="evenodd" d="M4.291 4.23a8.464 8.464 0 0114.45 5.984c0 3.876-2.163 7.39-4.424 9.989a29.212 29.212 0 01-4.04 3.819 29.213 29.213 0 01-4.041-3.819c-2.262-2.6-4.424-6.113-4.424-9.989 0-2.245.892-4.398 2.48-5.985zm5.555 21.34l.43-.613-.43.614a.75.75 0 00.86 0l-.43-.614.43.614h.001l.002-.002.007-.005.023-.016.083-.06a26.826 26.826 0 001.38-1.097 30.716 30.716 0 003.247-3.204c2.347-2.698 4.791-6.557 4.791-10.973a9.964 9.964 0 10-19.928 0c0 4.416 2.445 8.275 4.791 10.973a30.714 30.714 0 003.248 3.204 26.834 26.834 0 001.38 1.097l.083.06.022.016.007.005.002.001zM7.34 10.215a2.936 2.936 0 115.87 0 2.936 2.936 0 01-5.87 0zm2.935-4.435a4.436 4.436 0 100 8.871 4.436 4.436 0 000-8.871z" fill="#fff"/></svg>